<svg xmlns="http://www.w3.org/2000/svg" xmlns:xlink="http://www.w3.org/1999/xlink" width="500" zoomAndPan="magnify" viewBox="0 0 375 374.999991" height="500" preserveAspectRatio="xMidYMid meet" version="1.0"><defs><g/></defs><g fill="#544f4d" fill-opacity="1"><g transform="translate(33.221856, 189.979313)"><g><path d="M 31.375 -13.546875 C 31.375 -15.546875 30.660156 -17.082031 29.234375 -18.15625 C 27.816406 -19.238281 25.265625 -20.375 21.578125 -21.5625 C 17.898438 -22.757812 14.984375 -23.9375 12.828125 -25.09375 C 6.972656 -28.257812 4.046875 -32.523438 4.046875 -37.890625 C 4.046875 -40.679688 4.828125 -43.164062 6.390625 -45.34375 C 7.960938 -47.53125 10.21875 -49.238281 13.15625 -50.46875 C 16.101562 -51.695312 19.410156 -52.3125 23.078125 -52.3125 C 26.765625 -52.3125 30.046875 -51.644531 32.921875 -50.3125 C 35.804688 -48.976562 38.046875 -47.09375 39.640625 -44.65625 C 41.242188 -42.226562 42.046875 -39.46875 42.046875 -36.375 L 31.40625 -36.375 C 31.40625 -38.726562 30.660156 -40.5625 29.171875 -41.875 C 27.679688 -43.1875 25.585938 -43.84375 22.890625 -43.84375 C 20.296875 -43.84375 18.273438 -43.289062 16.828125 -42.1875 C 15.390625 -41.09375 14.671875 -39.648438 14.671875 -37.859375 C 14.671875 -36.179688 15.515625 -34.773438 17.203125 -33.640625 C 18.898438 -32.503906 21.390625 -31.441406 24.671875 -30.453125 C 30.722656 -28.628906 35.128906 -26.367188 37.890625 -23.671875 C 40.660156 -20.984375 42.046875 -17.628906 42.046875 -13.609375 C 42.046875 -9.140625 40.351562 -5.632812 36.96875 -3.09375 C 33.59375 -0.5625 29.046875 0.703125 23.328125 0.703125 C 19.359375 0.703125 15.738281 -0.0195312 12.46875 -1.46875 C 9.207031 -2.925781 6.722656 -4.914062 5.015625 -7.4375 C 3.304688 -9.96875 2.453125 -12.898438 2.453125 -16.234375 L 13.109375 -16.234375 C 13.109375 -10.535156 16.515625 -7.6875 23.328125 -7.6875 C 25.847656 -7.6875 27.816406 -8.203125 29.234375 -9.234375 C 30.660156 -10.265625 31.375 -11.703125 31.375 -13.546875 Z M 31.375 -13.546875 "/></g></g></g><g fill="#544f4d" fill-opacity="1"><g transform="translate(73.486606, 189.979313)"><g><path d="M 21.59375 0.703125 C 15.96875 0.703125 11.382812 -1.019531 7.84375 -4.46875 C 4.3125 -7.914062 2.546875 -12.507812 2.546875 -18.25 L 2.546875 -19.25 C 2.546875 -23.101562 3.289062 -26.546875 4.78125 -29.578125 C 6.269531 -32.617188 8.378906 -34.957031 11.109375 -36.59375 C 13.835938 -38.238281 16.953125 -39.0625 20.453125 -39.0625 C 25.703125 -39.0625 29.832031 -37.40625 32.84375 -34.09375 C 35.851562 -30.789062 37.359375 -26.101562 37.359375 -20.03125 L 37.359375 -15.84375 L 12.9375 -15.84375 C 13.269531 -13.34375 14.269531 -11.332031 15.9375 -9.8125 C 17.601562 -8.300781 19.710938 -7.546875 22.265625 -7.546875 C 26.210938 -7.546875 29.296875 -8.976562 31.515625 -11.84375 L 36.546875 -6.203125 C 35.003906 -4.023438 32.921875 -2.328125 30.296875 -1.109375 C 27.679688 0.0976562 24.78125 0.703125 21.59375 0.703125 Z M 20.421875 -30.765625 C 18.390625 -30.765625 16.738281 -30.078125 15.46875 -28.703125 C 14.207031 -27.335938 13.398438 -25.378906 13.046875 -22.828125 L 27.296875 -22.828125 L 27.296875 -23.640625 C 27.242188 -25.910156 26.625 -27.664062 25.4375 -28.90625 C 24.257812 -30.144531 22.585938 -30.765625 20.421875 -30.765625 Z M 20.421875 -30.765625 "/></g></g></g><g fill="#544f4d" fill-opacity="1"><g transform="translate(108.364339, 189.979313)"><g><path d="M 13.9375 -34.171875 C 16.644531 -37.429688 20.054688 -39.0625 24.171875 -39.0625 C 32.492188 -39.0625 36.710938 -34.226562 36.828125 -24.5625 L 36.828125 0 L 26.578125 0 L 26.578125 -24.28125 C 26.578125 -26.476562 26.101562 -28.101562 25.15625 -29.15625 C 24.21875 -30.207031 22.648438 -30.734375 20.453125 -30.734375 C 17.453125 -30.734375 15.28125 -29.578125 13.9375 -27.265625 L 13.9375 0 L 3.6875 0 L 3.6875 -54.453125 L 13.9375 -54.453125 Z M 13.9375 -34.171875 "/></g></g></g><g fill="#544f4d" fill-opacity="1"><g transform="translate(144.624261, 189.979313)"><g><path d="M 25.484375 -28.75 C 24.085938 -28.9375 22.859375 -29.03125 21.796875 -29.03125 C 17.921875 -29.03125 15.378906 -27.71875 14.171875 -25.09375 L 14.171875 0 L 3.9375 0 L 3.9375 -38.359375 L 13.609375 -38.359375 L 13.890625 -33.78125 C 15.953125 -37.300781 18.800781 -39.0625 22.4375 -39.0625 C 23.570312 -39.0625 24.632812 -38.90625 25.625 -38.59375 Z M 25.484375 -28.75 "/></g></g></g><g fill="#544f4d" fill-opacity="1"><g transform="translate(166.743276, 189.979313)"><g><path d="M 14.75 0 L 4.46875 0 L 4.46875 -38.359375 L 14.75 -38.359375 Z M 3.859375 -48.28125 C 3.859375 -49.8125 4.375 -51.070312 5.40625 -52.0625 C 6.4375 -53.0625 7.835938 -53.5625 9.609375 -53.5625 C 11.359375 -53.5625 12.75 -53.0625 13.78125 -52.0625 C 14.820312 -51.070312 15.34375 -49.8125 15.34375 -48.28125 C 15.34375 -46.71875 14.816406 -45.4375 13.765625 -44.4375 C 12.710938 -43.445312 11.320312 -42.953125 9.59375 -42.953125 C 7.875 -42.953125 6.488281 -43.445312 5.4375 -44.4375 C 4.382812 -45.4375 3.859375 -46.71875 3.859375 -48.28125 Z M 3.859375 -48.28125 "/></g></g></g><g fill="#ef5241" fill-opacity="1"><g transform="translate(176.516537, 190.806825)"><g><path d="M 34.140625 -20.203125 L 14.59375 -20.203125 L 14.59375 0 L 4.40625 0 L 4.40625 -49.421875 L 36.59375 -49.421875 L 36.59375 -41.171875 L 14.59375 -41.171875 L 14.59375 -28.40625 L 34.140625 -28.40625 Z M 34.140625 -20.203125 "/></g></g></g><g fill="#ef5241" fill-opacity="1"><g transform="translate(210.429474, 190.806825)"><g><path d="M 20.671875 0.671875 C 15.285156 0.671875 10.898438 -0.976562 7.515625 -4.28125 C 4.128906 -7.582031 2.4375 -11.984375 2.4375 -17.484375 L 2.4375 -18.4375 C 2.4375 -22.125 3.148438 -25.421875 4.578125 -28.328125 C 6.003906 -31.234375 8.023438 -33.472656 10.640625 -35.046875 C 13.253906 -36.617188 16.234375 -37.40625 19.578125 -37.40625 C 24.609375 -37.40625 28.566406 -35.820312 31.453125 -32.65625 C 34.335938 -29.488281 35.78125 -24.992188 35.78125 -19.171875 L 35.78125 -15.171875 L 12.390625 -15.171875 C 12.703125 -12.773438 13.65625 -10.851562 15.25 -9.40625 C 16.851562 -7.957031 18.875 -7.234375 21.3125 -7.234375 C 25.09375 -7.234375 28.046875 -8.601562 30.171875 -11.34375 L 35 -5.9375 C 33.53125 -3.851562 31.535156 -2.226562 29.015625 -1.0625 C 26.503906 0.09375 23.722656 0.671875 20.671875 0.671875 Z M 19.546875 -29.46875 C 17.597656 -29.46875 16.019531 -28.8125 14.8125 -27.5 C 13.601562 -26.1875 12.828125 -24.304688 12.484375 -21.859375 L 26.140625 -21.859375 L 26.140625 -22.640625 C 26.085938 -24.816406 25.492188 -26.5 24.359375 -27.6875 C 23.234375 -28.875 21.628906 -29.46875 19.546875 -29.46875 Z M 19.546875 -29.46875 "/></g></g></g><g fill="#ef5241" fill-opacity="1"><g transform="translate(243.833264, 190.806825)"><g><path d="M 20.671875 0.671875 C 15.285156 0.671875 10.898438 -0.976562 7.515625 -4.28125 C 4.128906 -7.582031 2.4375 -11.984375 2.4375 -17.484375 L 2.4375 -18.4375 C 2.4375 -22.125 3.148438 -25.421875 4.578125 -28.328125 C 6.003906 -31.234375 8.023438 -33.472656 10.640625 -35.046875 C 13.253906 -36.617188 16.234375 -37.40625 19.578125 -37.40625 C 24.609375 -37.40625 28.566406 -35.820312 31.453125 -32.65625 C 34.335938 -29.488281 35.78125 -24.992188 35.78125 -19.171875 L 35.78125 -15.171875 L 12.390625 -15.171875 C 12.703125 -12.773438 13.65625 -10.851562 15.25 -9.40625 C 16.851562 -7.957031 18.875 -7.234375 21.3125 -7.234375 C 25.09375 -7.234375 28.046875 -8.601562 30.171875 -11.34375 L 35 -5.9375 C 33.53125 -3.851562 31.535156 -2.226562 29.015625 -1.0625 C 26.503906 0.09375 23.722656 0.671875 20.671875 0.671875 Z M 19.546875 -29.46875 C 17.597656 -29.46875 16.019531 -28.8125 14.8125 -27.5 C 13.601562 -26.1875 12.828125 -24.304688 12.484375 -21.859375 L 26.140625 -21.859375 L 26.140625 -22.640625 C 26.085938 -24.816406 25.492188 -26.5 24.359375 -27.6875 C 23.234375 -28.875 21.628906 -29.46875 19.546875 -29.46875 Z M 19.546875 -29.46875 "/></g></g></g><g fill="#ef5241" fill-opacity="1"><g transform="translate(277.237048, 190.806825)"><g><path d="M 2.234375 -18.640625 C 2.234375 -24.359375 3.519531 -28.914062 6.09375 -32.3125 C 8.664062 -35.707031 12.175781 -37.40625 16.625 -37.40625 C 20.207031 -37.40625 23.160156 -36.070312 25.484375 -33.40625 L 25.484375 -52.140625 L 35.328125 -52.140625 L 35.328125 0 L 26.46875 0 L 26 -3.90625 C 23.550781 -0.851562 20.40625 0.671875 16.5625 0.671875 C 12.238281 0.671875 8.769531 -1.023438 6.15625 -4.421875 C 3.539062 -7.828125 2.234375 -12.566406 2.234375 -18.640625 Z M 12.046875 -17.921875 C 12.046875 -14.484375 12.644531 -11.847656 13.84375 -10.015625 C 15.039062 -8.179688 16.785156 -7.265625 19.078125 -7.265625 C 22.109375 -7.265625 24.242188 -8.539062 25.484375 -11.09375 L 25.484375 -25.59375 C 24.265625 -28.144531 22.148438 -29.421875 19.140625 -29.421875 C 14.410156 -29.421875 12.046875 -25.585938 12.046875 -17.921875 Z M 12.046875 -17.921875 "/></g></g></g><g fill="#ef5241" fill-opacity="1"><g transform="translate(312.236171, 190.806825)"><g><path d="M 23.65625 -10.15625 C 23.65625 -11.351562 23.0625 -12.296875 21.875 -12.984375 C 20.6875 -13.671875 18.78125 -14.285156 16.15625 -14.828125 C 7.425781 -16.660156 3.0625 -20.375 3.0625 -25.96875 C 3.0625 -29.226562 4.410156 -31.945312 7.109375 -34.125 C 9.816406 -36.3125 13.351562 -37.40625 17.71875 -37.40625 C 22.375 -37.40625 26.097656 -36.304688 28.890625 -34.109375 C 31.691406 -31.921875 33.09375 -29.070312 33.09375 -25.5625 L 23.28125 -25.5625 C 23.28125 -26.957031 22.828125 -28.113281 21.921875 -29.03125 C 21.015625 -29.945312 19.601562 -30.40625 17.6875 -30.40625 C 16.03125 -30.40625 14.75 -30.03125 13.84375 -29.28125 C 12.9375 -28.539062 12.484375 -27.59375 12.484375 -26.4375 C 12.484375 -25.351562 13 -24.476562 14.03125 -23.8125 C 15.0625 -23.144531 16.796875 -22.566406 19.234375 -22.078125 C 21.679688 -21.585938 23.742188 -21.039062 25.421875 -20.4375 C 30.609375 -18.53125 33.203125 -15.238281 33.203125 -10.5625 C 33.203125 -7.207031 31.765625 -4.492188 28.890625 -2.421875 C 26.015625 -0.359375 22.300781 0.671875 17.75 0.671875 C 14.675781 0.671875 11.941406 0.125 9.546875 -0.96875 C 7.160156 -2.0625 5.289062 -3.5625 3.9375 -5.46875 C 2.582031 -7.382812 1.90625 -9.453125 1.90625 -11.671875 L 11.203125 -11.671875 C 11.296875 -9.929688 11.941406 -8.597656 13.140625 -7.671875 C 14.335938 -6.742188 15.941406 -6.28125 17.953125 -6.28125 C 19.828125 -6.28125 21.242188 -6.632812 22.203125 -7.34375 C 23.171875 -8.0625 23.65625 -9 23.65625 -10.15625 Z M 23.65625 -10.15625 "/></g></g></g><g fill="#544f4d" fill-opacity="1"><g transform="translate(80.237874, 218.628792)"><g><path d="M 6.625 -3.921875 L 2.828125 -3.921875 L 2.828125 0 L 0.859375 0 L 0.859375 -9.59375 L 7.09375 -9.59375 L 7.09375 -7.984375 L 2.828125 -7.984375 L 2.828125 -5.515625 L 6.625 -5.515625 Z M 6.625 -3.921875 "/></g></g></g><g fill="#544f4d" fill-opacity="1"><g transform="translate(94.441805, 218.628792)"><g><path d="M 6.625 -4.15625 L 2.828125 -4.15625 L 2.828125 -1.59375 L 7.28125 -1.59375 L 7.28125 0 L 0.859375 0 L 0.859375 -9.59375 L 7.265625 -9.59375 L 7.265625 -7.984375 L 2.828125 -7.984375 L 2.828125 -5.703125 L 6.625 -5.703125 Z M 6.625 -4.15625 "/></g></g></g><g fill="#544f4d" fill-opacity="1"><g transform="translate(108.843279, 218.628792)"><g><path d="M 6.625 -4.15625 L 2.828125 -4.15625 L 2.828125 -1.59375 L 7.28125 -1.59375 L 7.28125 0 L 0.859375 0 L 0.859375 -9.59375 L 7.265625 -9.59375 L 7.265625 -7.984375 L 2.828125 -7.984375 L 2.828125 -5.703125 L 6.625 -5.703125 Z M 6.625 -4.15625 "/></g></g></g><g fill="#544f4d" fill-opacity="1"><g transform="translate(123.244755, 218.628792)"><g><path d="M 0.859375 0 L 0.859375 -9.59375 L 3.8125 -9.59375 C 4.644531 -9.59375 5.394531 -9.398438 6.0625 -9.015625 C 6.726562 -8.640625 7.25 -8.097656 7.625 -7.390625 C 8 -6.691406 8.1875 -5.898438 8.1875 -5.015625 L 8.1875 -4.5625 C 8.1875 -3.675781 8 -2.882812 7.625 -2.1875 C 7.257812 -1.5 6.742188 -0.960938 6.078125 -0.578125 C 5.410156 -0.191406 4.660156 0 3.828125 0 Z M 2.828125 -7.984375 L 2.828125 -1.59375 L 3.78125 -1.59375 C 4.550781 -1.59375 5.140625 -1.84375 5.546875 -2.34375 C 5.960938 -2.84375 6.175781 -3.566406 6.1875 -4.515625 L 6.1875 -5.015625 C 6.1875 -5.992188 5.984375 -6.734375 5.578125 -7.234375 C 5.171875 -7.734375 4.582031 -7.984375 3.8125 -7.984375 Z M 2.828125 -7.984375 "/></g></g></g><g fill="#544f4d" fill-opacity="1"><g transform="translate(138.824909, 218.628792)"><g/></g></g><g fill="#544f4d" fill-opacity="1"><g transform="translate(148.998938, 218.628792)"><g><path d="M 6.625 -3.921875 L 2.828125 -3.921875 L 2.828125 0 L 0.859375 0 L 0.859375 -9.59375 L 7.09375 -9.59375 L 7.09375 -7.984375 L 2.828125 -7.984375 L 2.828125 -5.515625 L 6.625 -5.515625 Z M 6.625 -3.921875 "/></g></g></g><g fill="#544f4d" fill-opacity="1"><g transform="translate(163.202872, 218.628792)"><g><path d="M 8.734375 -4.578125 C 8.734375 -3.628906 8.566406 -2.800781 8.234375 -2.09375 C 7.898438 -1.382812 7.421875 -0.835938 6.796875 -0.453125 C 6.171875 -0.0664062 5.457031 0.125 4.65625 0.125 C 3.863281 0.125 3.15625 -0.0625 2.53125 -0.4375 C 1.90625 -0.820312 1.421875 -1.367188 1.078125 -2.078125 C 0.742188 -2.785156 0.570312 -3.597656 0.5625 -4.515625 L 0.5625 -5 C 0.5625 -5.9375 0.734375 -6.765625 1.078125 -7.484375 C 1.421875 -8.203125 1.898438 -8.753906 2.515625 -9.140625 C 3.140625 -9.523438 3.847656 -9.71875 4.640625 -9.71875 C 5.441406 -9.71875 6.148438 -9.523438 6.765625 -9.140625 C 7.390625 -8.753906 7.875 -8.203125 8.21875 -7.484375 C 8.5625 -6.765625 8.734375 -5.9375 8.734375 -5 Z M 6.734375 -5.015625 C 6.734375 -6.015625 6.550781 -6.773438 6.1875 -7.296875 C 5.832031 -7.816406 5.316406 -8.078125 4.640625 -8.078125 C 3.984375 -8.078125 3.472656 -7.816406 3.109375 -7.296875 C 2.753906 -6.785156 2.570312 -6.035156 2.5625 -5.046875 L 2.5625 -4.578125 C 2.5625 -3.597656 2.738281 -2.835938 3.09375 -2.296875 C 3.457031 -1.753906 3.976562 -1.484375 4.65625 -1.484375 C 5.320312 -1.484375 5.832031 -1.742188 6.1875 -2.265625 C 6.539062 -2.785156 6.722656 -3.546875 6.734375 -4.546875 Z M 6.734375 -5.015625 "/></g></g></g><g fill="#544f4d" fill-opacity="1"><g transform="translate(179.329561, 218.628792)"><g><path d="M 4.40625 -3.515625 L 2.828125 -3.515625 L 2.828125 0 L 0.859375 0 L 0.859375 -9.59375 L 4.421875 -9.59375 C 5.546875 -9.59375 6.414062 -9.335938 7.03125 -8.828125 C 7.644531 -8.328125 7.953125 -7.613281 7.953125 -6.6875 C 7.953125 -6.03125 7.8125 -5.484375 7.53125 -5.046875 C 7.25 -4.609375 6.820312 -4.265625 6.25 -4.015625 L 8.328125 -0.09375 L 8.328125 0 L 6.203125 0 Z M 2.828125 -5.109375 L 4.421875 -5.109375 C 4.921875 -5.109375 5.304688 -5.234375 5.578125 -5.484375 C 5.847656 -5.734375 5.984375 -6.082031 5.984375 -6.53125 C 5.984375 -6.976562 5.851562 -7.332031 5.59375 -7.59375 C 5.34375 -7.851562 4.953125 -7.984375 4.421875 -7.984375 L 2.828125 -7.984375 Z M 2.828125 -5.109375 "/></g></g></g><g fill="#544f4d" fill-opacity="1"><g transform="translate(194.751683, 218.628792)"><g/></g></g><g fill="#544f4d" fill-opacity="1"><g transform="translate(204.925716, 218.628792)"><g><path d="M 4.71875 -9.59375 L 6.703125 -9.59375 L 6.703125 -2.953125 C 6.703125 -2.335938 6.566406 -1.796875 6.296875 -1.328125 C 6.023438 -0.859375 5.640625 -0.5 5.140625 -0.25 C 4.648438 0 4.097656 0.125 3.484375 0.125 C 2.472656 0.125 1.679688 -0.128906 1.109375 -0.640625 C 0.546875 -1.160156 0.265625 -1.890625 0.265625 -2.828125 L 2.25 -2.828125 C 2.25 -2.359375 2.347656 -2.007812 2.546875 -1.78125 C 2.742188 -1.5625 3.054688 -1.453125 3.484375 -1.453125 C 3.859375 -1.453125 4.15625 -1.582031 4.375 -1.84375 C 4.601562 -2.101562 4.71875 -2.472656 4.71875 -2.953125 Z M 4.71875 -9.59375 "/></g></g></g><g fill="#544f4d" fill-opacity="1"><g transform="translate(219.274508, 218.628792)"><g><path d="M 6.265625 -1.96875 L 2.8125 -1.96875 L 2.140625 0 L 0.046875 0 L 3.609375 -9.59375 L 5.4375 -9.59375 L 9.03125 0 L 6.9375 0 Z M 3.34375 -3.578125 L 5.734375 -3.578125 L 4.53125 -7.15625 Z M 3.34375 -3.578125 "/></g></g></g><g fill="#544f4d" fill-opacity="1"><g transform="translate(235.164144, 218.628792)"><g><path d="M 8.65625 0 L 6.671875 0 L 2.828125 -6.3125 L 2.828125 0 L 0.859375 0 L 0.859375 -9.59375 L 2.828125 -9.59375 L 6.6875 -3.265625 L 6.6875 -9.59375 L 8.65625 -9.59375 Z M 8.65625 0 "/></g></g></g><g fill="#544f4d" fill-opacity="1"><g transform="translate(251.501547, 218.628792)"><g><path d="M 8.65625 0 L 6.671875 0 L 2.828125 -6.3125 L 2.828125 0 L 0.859375 0 L 0.859375 -9.59375 L 2.828125 -9.59375 L 6.6875 -3.265625 L 6.6875 -9.59375 L 8.65625 -9.59375 Z M 8.65625 0 "/></g></g></g><g fill="#544f4d" fill-opacity="1"><g transform="translate(267.838951, 218.628792)"><g><path d="M 6.265625 -1.96875 L 2.8125 -1.96875 L 2.140625 0 L 0.046875 0 L 3.609375 -9.59375 L 5.4375 -9.59375 L 9.03125 0 L 6.9375 0 Z M 3.34375 -3.578125 L 5.734375 -3.578125 L 4.53125 -7.15625 Z M 3.34375 -3.578125 "/></g></g></g><g fill="#544f4d" fill-opacity="1"><g transform="translate(283.728587, 218.628792)"><g><path d="M 8.65625 0 L 6.6875 0 L 6.6875 -4.109375 L 2.828125 -4.109375 L 2.828125 0 L 0.859375 0 L 0.859375 -9.59375 L 2.828125 -9.59375 L 2.828125 -5.703125 L 6.6875 -5.703125 L 6.6875 -9.59375 L 8.65625 -9.59375 Z M 8.65625 0 "/></g></g></g></svg>